<svg width="63" height="59" viewBox="0 0 63 59" fill="none" xmlns="http://www.w3.org/2000/svg">
<path fill-rule="evenodd" clip-rule="evenodd" d="M31.5 33.1875C34.2848 33.1875 36.9555 32.1515 38.9246 30.3074C40.8938 28.4633 42 25.9622 42 23.3542C42 20.7462 40.8938 18.2451 38.9246 16.401C36.9555 14.5569 34.2848 13.5209 31.5 13.5209C28.7152 13.5209 26.0445 14.5569 24.0754 16.401C22.1062 18.2451 21 20.7462 21 23.3542C21 25.9622 22.1062 28.4633 24.0754 30.3074C26.0445 32.1515 28.7152 33.1875 31.5 33.1875ZM31.5 30.7292C32.5342 30.7292 33.5582 30.5384 34.5136 30.1678C35.4691 29.7972 36.3372 29.254 37.0685 28.5691C37.7997 27.8843 38.3798 27.0713 38.7756 26.1765C39.1713 25.2817 39.375 24.3227 39.375 23.3542C39.375 22.3857 39.1713 21.4267 38.7756 20.5319C38.3798 19.6371 37.7997 18.8241 37.0685 18.1393C36.3372 17.4545 35.4691 16.9112 34.5136 16.5406C33.5582 16.17 32.5342 15.9792 31.5 15.9792C29.4114 15.9792 27.4084 16.7562 25.9315 18.1393C24.4547 19.5224 23.625 21.3982 23.625 23.3542C23.625 25.3102 24.4547 27.186 25.9315 28.5691C27.4084 29.9522 29.4114 30.7292 31.5 30.7292Z" fill="black"/>
<path fill-rule="evenodd" clip-rule="evenodd" d="M57.75 29.5C57.75 43.0774 45.9979 54.0833 31.5 54.0833C17.0021 54.0833 5.25 43.0774 5.25 29.5C5.25 15.9226 17.0021 4.91669 31.5 4.91669C45.9979 4.91669 57.75 15.9226 57.75 29.5ZM44.1394 48.1956C40.3606 50.442 35.9758 51.6318 31.5 51.625C26.9169 51.6319 22.4316 50.3844 18.5955 48.0359C18.2805 47.6671 17.9616 47.2861 17.6374 46.8927C17.2627 46.4317 17.0606 45.868 17.0625 45.2887C17.0625 43.9649 18.0784 42.8549 19.4368 42.6693C28.4209 41.4401 34.6067 41.5458 43.6026 42.7123C44.254 42.8008 44.8493 43.107 45.2785 43.5744C45.7077 44.0419 45.9418 44.639 45.9375 45.2555C45.9375 45.8455 45.7209 46.4183 45.3298 46.8657C44.9269 47.3254 44.5292 47.7691 44.1394 48.1956ZM48.5428 44.8228C48.3328 42.5218 46.4677 40.6019 43.9622 40.2774C34.7537 39.0838 28.3172 38.9695 19.0575 40.2368C16.5375 40.581 14.6803 42.5181 14.4598 44.8253C10.2274 40.7089 7.86666 35.2145 7.875 29.5C7.875 17.2809 18.4524 7.37502 31.5 7.37502C44.5476 7.37502 55.125 17.2809 55.125 29.5C55.1334 35.2133 52.7736 40.7066 48.5428 44.8228Z" fill="black"/>
</svg>
