<svg width="93" height="98" viewBox="0 0 93 98" fill="none" xmlns="http://www.w3.org/2000/svg">
<path d="M46.5 47.8516V93.7412L43.5938 95.2725L5.8125 75.4141V25.6484L43.5938 5.74219L81.375 25.6484V61.25H75.5625V32.5391L46.5 47.8516ZM43.5938 12.6328L32.6499 18.375L60.8496 33.4004L71.9751 27.5625L43.5938 12.6328ZM40.6875 86.8984V47.8516L11.625 32.5391V71.5859L40.6875 86.8984ZM15.2124 27.5625L43.5938 42.4922L54.4014 36.8457L26.1562 21.8203L15.2124 27.5625ZM63.9375 85.75V79.625H93V85.75H63.9375ZM63.9375 67.375H93V73.5H63.9375V67.375ZM52.3125 98V91.875H58.125V98H52.3125ZM52.3125 73.5V67.375H58.125V73.5H52.3125ZM52.3125 85.75V79.625H58.125V85.75H52.3125ZM63.9375 98V91.875H93V98H63.9375Z" fill="black"/>
</svg>
