<svg width="98" height="113" viewBox="0 0 98 113" fill="none" xmlns="http://www.w3.org/2000/svg">
<path fill-rule="evenodd" clip-rule="evenodd" d="M24.5 50.85C27.0991 50.85 29.5918 49.6594 31.4296 47.5403C33.2675 45.4211 34.3 42.5469 34.3 39.55C34.3 36.553 33.2675 33.6788 31.4296 31.5597C29.5918 29.4405 27.0991 28.25 24.5 28.25C21.9009 28.25 19.4082 29.4405 17.5704 31.5597C15.7325 33.6788 14.7 36.553 14.7 39.55C14.7 42.5469 15.7325 45.4211 17.5704 47.5403C19.4082 49.6594 21.9009 50.85 24.5 50.85ZM24.5 56.5C26.4304 56.5 28.342 56.0616 30.1254 55.2097C31.9089 54.3579 33.5294 53.1094 34.8945 51.5354C36.2595 49.9615 37.3423 48.0929 38.081 46.0365C38.8198 43.98 39.2 41.7759 39.2 39.55C39.2 37.3241 38.8198 35.12 38.081 33.0635C37.3423 31.007 36.2595 29.1385 34.8945 27.5645C33.5294 25.9906 31.9089 24.742 30.1254 23.8902C28.342 23.0384 26.4304 22.6 24.5 22.6C20.6013 22.6 16.8623 24.3858 14.1055 27.5645C11.3487 30.7433 9.8 35.0546 9.8 39.55C9.8 44.0454 11.3487 48.3567 14.1055 51.5354C16.8623 54.7142 20.6013 56.5 24.5 56.5Z" fill="black"/>
<path fill-rule="evenodd" clip-rule="evenodd" d="M18.8846 50.2624C19.1128 50.5248 19.2938 50.8365 19.4173 51.1797C19.5408 51.523 19.6044 51.8909 19.6044 52.2625C19.6044 52.6341 19.5408 53.002 19.4173 53.3452C19.2938 53.6884 19.1128 54.0002 18.8846 54.2626L17.2284 56.1666C14.0411 59.8428 12.2504 64.8279 12.25 70.0261V80.5125C12.25 81.2617 11.9919 81.9803 11.5324 82.5101C11.0729 83.0398 10.4498 83.3375 9.8 83.3375C9.15022 83.3375 8.52705 83.0398 8.06759 82.5101C7.60812 81.9803 7.35 81.2617 7.35 80.5125V70.0261C7.35069 63.3296 9.65783 56.9076 13.7641 52.1721L15.4154 50.2624C15.643 49.9993 15.9133 49.7906 16.211 49.6482C16.5086 49.5057 16.8277 49.4324 17.15 49.4324C17.4723 49.4324 17.7914 49.5057 18.089 49.6482C18.3867 49.7906 18.657 49.9993 18.8846 50.2624ZM76.6654 48.5674C76.4372 48.8298 76.2562 49.1415 76.1327 49.4847C76.0092 49.828 75.9456 50.1959 75.9456 50.5675C75.9456 50.9391 76.0092 51.307 76.1327 51.6502C76.2562 51.9934 76.4372 52.3052 76.6654 52.5676L78.3216 54.4716C79.9 56.2917 81.152 58.4524 82.0062 60.8304C82.8604 63.2084 83.3001 65.7572 83.3 68.3311V80.5125C83.3 81.2617 83.5581 81.9803 84.0176 82.5101C84.4771 83.0398 85.1002 83.3375 85.75 83.3375C86.3998 83.3375 87.0229 83.0398 87.4824 82.5101C87.9419 81.9803 88.2 81.2617 88.2 80.5125V68.3311C88.1993 61.6346 85.8922 55.2126 81.7859 50.4771L80.1346 48.5674C79.907 48.3043 79.6367 48.0956 79.339 47.9532C79.0414 47.8107 78.7223 47.7374 78.4 47.7374C78.0777 47.7374 77.7587 47.8107 77.461 47.9532C77.1633 48.0956 76.893 48.3043 76.6654 48.5674Z" fill="black"/>
<path fill-rule="evenodd" clip-rule="evenodd" d="M68.6 50.85C66.0009 50.85 63.5082 49.6594 61.6704 47.5403C59.8325 45.4211 58.8 42.5469 58.8 39.55C58.8 36.553 59.8325 33.6788 61.6704 31.5597C63.5082 29.4405 66.0009 28.25 68.6 28.25C71.1991 28.25 73.6918 29.4405 75.5296 31.5597C77.3675 33.6788 78.4 36.553 78.4 39.55C78.4 42.5469 77.3675 45.4211 75.5296 47.5403C73.6918 49.6594 71.1991 50.85 68.6 50.85ZM68.6 56.5C66.6696 56.5 64.758 56.0616 62.9746 55.2097C61.1911 54.3579 59.5705 53.1094 58.2055 51.5354C56.8405 49.9615 55.7577 48.0929 55.019 46.0365C54.2802 43.98 53.9 41.7759 53.9 39.55C53.9 37.3241 54.2802 35.12 55.019 33.0635C55.7577 31.007 56.8405 29.1385 58.2055 27.5645C59.5705 25.9906 61.1911 24.742 62.9746 23.8902C64.758 23.0384 66.6696 22.6 68.6 22.6C72.4987 22.6 76.2377 24.3858 78.9945 27.5645C81.7513 30.7433 83.3 35.0546 83.3 39.55C83.3 44.0454 81.7513 48.3567 78.9945 51.5354C76.2377 54.7142 72.4987 56.5 68.6 56.5ZM46.55 74.8625C43.3011 74.8625 40.1853 76.3506 37.8879 78.9996C35.5906 81.6485 34.3 85.2413 34.3 88.9875V96.3325C34.3 97.0817 34.0419 97.8003 33.5824 98.3301C33.1229 98.8598 32.4998 99.1575 31.85 99.1575C31.2002 99.1575 30.5771 98.8598 30.1176 98.3301C29.6581 97.8003 29.4 97.0817 29.4 96.3325V88.9875C29.4 83.7428 31.2069 78.713 34.4231 75.0044C37.6394 71.2959 42.0015 69.2125 46.55 69.2125C51.0985 69.2125 55.4606 71.2959 58.6769 75.0044C61.8931 78.713 63.7 83.7428 63.7 88.9875V96.3325C63.7 97.0817 63.4419 97.8003 62.9824 98.3301C62.5229 98.8598 61.8998 99.1575 61.25 99.1575C60.6002 99.1575 59.977 98.8598 59.5176 98.3301C59.0581 97.8003 58.8 97.0817 58.8 96.3325V88.9875C58.8 87.1326 58.4831 85.2958 57.8675 83.5821C57.2519 81.8684 56.3496 80.3112 55.2121 78.9996C54.0745 77.688 52.7241 76.6475 51.2379 75.9377C49.7516 75.2278 48.1587 74.8625 46.55 74.8625Z" fill="black"/>
<path fill-rule="evenodd" clip-rule="evenodd" d="M46.55 66.3875C49.1491 66.3875 51.6418 65.1969 53.4796 63.0778C55.3175 60.9586 56.35 58.0844 56.35 55.0875C56.35 52.0905 55.3175 49.2163 53.4796 47.0971C51.6418 44.978 49.1491 43.7875 46.55 43.7875C43.9509 43.7875 41.4582 44.978 39.6204 47.0971C37.7825 49.2163 36.75 52.0905 36.75 55.0875C36.75 58.0844 37.7825 60.9586 39.6204 63.0778C41.4582 65.1969 43.9509 66.3875 46.55 66.3875ZM46.55 72.0375C50.4487 72.0375 54.1877 70.2517 56.9445 67.0729C59.7013 63.8942 61.25 59.5829 61.25 55.0875C61.25 50.592 59.7013 46.2807 56.9445 43.102C54.1877 39.9233 50.4487 38.1375 46.55 38.1375C42.6513 38.1375 38.9123 39.9233 36.1555 43.102C33.3987 46.2807 31.85 50.592 31.85 55.0875C31.85 59.5829 33.3987 63.8942 36.1555 67.0729C38.9123 70.2517 42.6513 72.0375 46.55 72.0375Z" fill="black"/>
</svg>
