<svg width="102" height="104" viewBox="0 0 102 104" fill="none" xmlns="http://www.w3.org/2000/svg">
<path d="M31.875 29.25V26.9815C31.875 15.7105 40.392 6.5 51 6.5C61.608 6.5 70.125 15.7105 70.125 26.9815V29.2565H83.181C83.9706 29.2573 84.7319 29.5569 85.3173 30.0973C85.9026 30.6377 86.2704 31.3804 86.3494 32.1815L92.0869 90.6815C92.1314 91.1332 92.0826 91.5893 91.9437 92.0206C91.8048 92.4519 91.5788 92.8487 91.2803 93.1855C90.9818 93.5223 90.6175 93.7916 90.2107 93.976C89.8039 94.1605 89.3637 94.2561 88.9185 94.2565H13.0815C12.6363 94.2561 12.1961 94.1605 11.7893 93.976C11.3826 93.7916 11.0182 93.5223 10.7197 93.1855C10.4212 92.8487 10.1952 92.4519 10.0563 92.0206C9.91738 91.5893 9.86861 91.1332 9.91313 90.6815L15.6506 32.1815C15.7296 31.3804 16.0974 30.6377 16.6827 30.0973C17.2681 29.5569 18.0294 29.2573 18.819 29.2565H31.875V29.25ZM38.25 29.25H63.75V26.9815C63.75 19.2205 57.9998 13 51 13C44.0003 13 38.25 19.2205 38.25 26.9815V29.2565V29.25ZM31.875 35.75H21.7069L16.6069 87.75H85.3931L80.2868 35.75H70.125V45.5C70.125 46.362 69.7892 47.1886 69.1914 47.7981C68.5936 48.4076 67.7829 48.75 66.9375 48.75C66.0921 48.75 65.2814 48.4076 64.6836 47.7981C64.0858 47.1886 63.75 46.362 63.75 45.5V35.75H38.25V45.5C38.25 46.362 37.9142 47.1886 37.3164 47.7981C36.7186 48.4076 35.9079 48.75 35.0625 48.75C34.2171 48.75 33.4064 48.4076 32.8086 47.7981C32.2108 47.1886 31.875 46.362 31.875 45.5V35.75Z" fill="black"/>
</svg>
