<svg width="53" height="53" viewBox="0 0 53 53" fill="none" xmlns="http://www.w3.org/2000/svg">
<path d="M11.5938 24.8438H44.7188C45.158 24.8438 45.5793 25.0182 45.8899 25.3289C46.2005 25.6395 46.375 26.0607 46.375 26.5C46.375 26.9393 46.2005 27.3605 45.8899 27.6711C45.5793 27.9818 45.158 28.1562 44.7188 28.1562H11.5938C11.1545 28.1562 10.7332 27.9818 10.4226 27.6711C10.112 27.3605 9.9375 26.9393 9.9375 26.5C9.9375 26.0607 10.112 25.6395 10.4226 25.3289C10.7332 25.0182 11.1545 24.8438 11.5938 24.8438Z" fill="black"/>
<path d="M12.2795 26.5L26.0164 40.2336C26.3274 40.5446 26.5021 40.9664 26.5021 41.4063C26.5021 41.8461 26.3274 42.2679 26.0164 42.5789C25.7054 42.8899 25.2836 43.0646 24.8438 43.0646C24.404 43.0646 23.9822 42.8899 23.6712 42.5789L8.76491 27.6726C8.61067 27.5188 8.48829 27.336 8.4048 27.1348C8.3213 26.9336 8.27832 26.7179 8.27832 26.5C8.27832 26.2822 8.3213 26.0664 8.4048 25.8652C8.48829 25.664 8.61067 25.4812 8.76491 25.3274L23.6712 10.4211C23.9822 10.1101 24.404 9.93542 24.8438 9.93542C25.2836 9.93542 25.7054 10.1101 26.0164 10.4211C26.3274 10.7321 26.5021 11.1539 26.5021 11.5938C26.5021 12.0336 26.3274 12.4554 26.0164 12.7664L12.2795 26.5Z" fill="black"/>
</svg>
