<svg width="50" height="50" viewBox="0 0 50 50" fill="none" xmlns="http://www.w3.org/2000/svg">
<path d="M39.7537 43.4464L41.1974 12.8527H43.2894C44.1474 12.8527 44.8385 12.1411 44.8385 11.283C44.8385 10.425 44.1474 9.69197 43.2894 9.69197H34.1447V6.55357C34.1447 3.56072 32.1153 1.61518 28.893 1.61518H21.0662C17.843 1.61518 15.834 3.56161 15.834 6.55268V9.69197H6.73224C5.89563 9.69197 5.1626 10.4241 5.1626 11.283C5.1626 12.1402 5.89474 12.8527 6.73224 12.8527H8.8251L10.268 43.4679C10.4144 46.4813 12.4019 48.3848 15.4162 48.3848H34.6055C37.5974 48.3848 39.6063 46.4598 39.7528 43.4473M19.1822 6.7625C19.1822 5.56965 20.0617 4.73304 21.3171 4.73304H28.6626C29.9394 4.73304 30.818 5.56965 30.818 6.7625V9.69197H19.1822V6.7625ZM15.7296 45.2464C14.5153 45.2464 13.6162 44.325 13.5537 43.1125L12.0894 12.8527H37.8483L36.468 43.1116C36.4055 44.3464 35.526 45.2455 34.2912 45.2455L15.7296 45.2464ZM31.2153 41.5634C31.9055 41.5634 32.4296 40.9982 32.4501 40.2027L33.0778 18.1045C33.0983 17.3098 32.5546 16.7232 31.843 16.7232C31.1947 16.7232 30.6501 17.3304 30.6287 18.0839L30.0019 40.2027C29.9805 40.9563 30.5037 41.5634 31.2153 41.5634ZM18.8063 41.5634C19.518 41.5634 20.0403 40.9563 20.0197 40.2027L19.3921 18.0839C19.3706 17.3304 18.8063 16.7232 18.1572 16.7232C17.4456 16.7232 16.9224 17.3098 16.943 18.1045L17.5921 40.2027C17.6135 40.9982 18.1153 41.5634 18.8063 41.5634ZM26.2769 40.2027V18.0839C26.2769 17.3304 25.7117 16.7232 25.0206 16.7232C24.3305 16.7232 23.7438 17.3304 23.7438 18.0839V40.2027C23.7438 40.9563 24.3305 41.5634 25.0206 41.5634C25.6903 41.5634 26.2769 40.9563 26.2769 40.2027Z" fill="#FD0808"/>
</svg>
