<svg width="38" height="30" viewBox="0 0 38 30" fill="none" xmlns="http://www.w3.org/2000/svg">
<path d="M30.2977 26.0677L31.383 7.71149H32.9554C33.6004 7.71149 34.1199 7.28453 34.1199 6.76971C34.1199 6.25489 33.6004 5.81507 32.9554 5.81507H26.0816V3.93203C26.0816 2.13632 24.5561 0.968994 22.134 0.968994H16.2507C13.8279 0.968994 12.3179 2.13685 12.3179 3.93149V5.81507H5.47625C4.84739 5.81507 4.29639 6.25435 4.29639 6.76971C4.29639 7.28399 4.84672 7.71149 5.47625 7.71149H7.04941L8.13397 26.0806C8.24404 27.8886 9.738 29.0308 12.0038 29.0308H26.4279C28.6769 29.0308 30.187 27.8758 30.2971 26.0683M14.8346 4.05739C14.8346 3.34167 15.4957 2.83971 16.4393 2.83971H21.9608C22.9205 2.83971 23.581 3.34167 23.581 4.05739V5.81507H14.8346V4.05739ZM12.2393 27.1477C11.3266 27.1477 10.6507 26.5949 10.6038 25.8674L9.5031 7.71149H28.8655L27.8279 25.8668C27.781 26.6077 27.1199 27.1472 26.1917 27.1472L12.2393 27.1477ZM23.8796 24.9379C24.3984 24.9379 24.7924 24.5988 24.8078 24.1215L25.2796 10.8626C25.295 10.3858 24.8863 10.0338 24.3514 10.0338C23.8642 10.0338 23.4548 10.3981 23.4387 10.8502L22.9675 24.1215C22.9514 24.5736 23.3447 24.9379 23.8796 24.9379ZM14.5521 24.9379C15.087 24.9379 15.4796 24.5736 15.4642 24.1215L14.9924 10.8502C14.9763 10.3981 14.5521 10.0338 14.0642 10.0338C13.5293 10.0338 13.136 10.3858 13.1514 10.8626L13.6393 24.1215C13.6554 24.5988 14.0326 24.9379 14.5521 24.9379ZM20.1675 24.1215V10.8502C20.1675 10.3981 19.7427 10.0338 19.2232 10.0338C18.7044 10.0338 18.2635 10.3981 18.2635 10.8502V24.1215C18.2635 24.5736 18.7044 24.9379 19.2232 24.9379C19.7266 24.9379 20.1675 24.5736 20.1675 24.1215Z" fill="#FD0808"/>
</svg>
