<svg width="42" height="33" viewBox="0 0 42 33" fill="none" xmlns="http://www.w3.org/2000/svg">
<path d="M34.0988 27.7117L23.1402 19.1015C22.2652 19.6872 21.259 20.1405 20.1215 20.4614C18.984 20.7822 17.8407 20.9426 16.6915 20.9426C13.8892 20.9426 11.5173 20.1804 9.576 18.656C7.63467 17.1307 6.664 15.2675 6.664 13.0666C6.664 10.8657 7.6335 9.00166 9.5725 7.4745C11.5127 5.94641 13.8833 5.18237 16.6845 5.18237C19.4868 5.18237 21.8598 5.94504 23.8035 7.47037C25.7472 8.99571 26.719 10.8597 26.719 13.0625C26.719 14.0177 26.5037 14.9421 26.0732 15.8359C25.6416 16.7296 25.0758 17.4941 24.3758 18.1294L35.3343 26.7382L34.097 27.7117H34.0988ZM16.6915 19.5662C19.0132 19.5662 20.9738 18.9383 22.5733 17.6825C24.1716 16.4267 24.9708 14.8862 24.9708 13.0611C24.9708 11.237 24.1716 9.69696 22.5733 8.44112C20.9749 7.18529 19.0149 6.55737 16.6933 6.55737C14.3716 6.55737 12.411 7.18529 10.8115 8.44112C9.21317 9.69696 8.414 11.237 8.414 13.0611C8.414 14.8853 9.21317 16.4253 10.8115 17.6811C12.4098 18.937 14.3698 19.5662 16.6915 19.5662Z" fill="black"/>
</svg>
