<svg width="92" height="95" viewBox="0 0 92 95" fill="none" xmlns="http://www.w3.org/2000/svg">
<path d="M23 23.75H28.75V35.625H23V23.75ZM23 41.5625H28.75V53.4375H23V41.5625ZM40.25 23.75H46V35.625H40.25V23.75ZM40.25 41.5625H46V53.4375H40.25V41.5625ZM23 59.375H28.75V71.25H23V59.375ZM40.25 59.375H46V71.25H40.25V59.375Z" fill="black"/>
<path d="M86.25 41.5625C86.25 39.9878 85.6442 38.4776 84.5659 37.3641C83.4875 36.2506 82.025 35.625 80.5 35.625H63.25V11.875C63.25 10.3003 62.6442 8.79005 61.5659 7.67655C60.4875 6.56306 59.025 5.9375 57.5 5.9375H11.5C9.97501 5.9375 8.51247 6.56306 7.43414 7.67655C6.3558 8.79005 5.75 10.3003 5.75 11.875V89.0625H86.25V41.5625ZM11.5 11.875H57.5V83.125H11.5V11.875ZM63.25 83.125V41.5625H80.5V83.125H63.25Z" fill="black"/>
</svg>
