<svg width="27" height="21" viewBox="0 0 27 21" fill="none" xmlns="http://www.w3.org/2000/svg">
<path d="M21.6359 18.2475L22.3917 5.3981H23.4868C23.936 5.3981 24.2978 5.09922 24.2978 4.73884C24.2978 4.37847 23.936 4.07059 23.4868 4.07059H18.6997V2.75247C18.6997 1.49547 17.6373 0.678345 15.9504 0.678345H11.8532C10.1659 0.678345 9.11422 1.49584 9.11422 2.75209V4.07059H4.34952C3.91157 4.07059 3.52783 4.37809 3.52783 4.73884C3.52783 5.09884 3.9111 5.3981 4.34952 5.3981H5.44511L6.20044 18.2565C6.27709 19.5221 7.31753 20.3216 8.89547 20.3216H18.9409C20.5071 20.3216 21.5588 19.5131 21.6354 18.2478M10.867 2.84022C10.867 2.33922 11.3274 1.98784 11.9845 1.98784H15.8298C16.4982 1.98784 16.9582 2.33922 16.9582 2.84022V4.07059H10.867V2.84022ZM9.05953 19.0035C8.42387 19.0035 7.95319 18.6165 7.92047 18.1072L7.15393 5.3981H20.6385L19.9159 18.1068C19.8832 18.6255 19.4228 19.0031 18.7763 19.0031L9.05953 19.0035ZM17.1661 17.4566C17.5274 17.4566 17.8018 17.2192 17.8126 16.8851L18.1411 7.60384C18.1519 7.27009 17.8673 7.02372 17.4947 7.02372C17.1554 7.02372 16.8703 7.27872 16.8591 7.59522L16.5309 16.8851C16.5197 17.2016 16.7936 17.4566 17.1661 17.4566ZM10.6702 17.4566C11.0427 17.4566 11.3161 17.2016 11.3054 16.8851L10.9768 7.59522C10.9656 7.27872 10.6702 7.02372 10.3304 7.02372C9.95788 7.02372 9.68398 7.27009 9.69473 7.60384L10.0345 16.8851C10.0457 17.2192 10.3084 17.4566 10.6702 17.4566ZM14.5809 16.8851V7.59522C14.5809 7.27872 14.2851 7.02372 13.9233 7.02372C13.562 7.02372 13.2549 7.27872 13.2549 7.59522V16.8851C13.2549 17.2016 13.562 17.4566 13.9233 17.4566C14.2739 17.4566 14.5809 17.2016 14.5809 16.8851Z" fill="#FD0808"/>
</svg>
