<svg width="38" height="30" viewBox="0 0 38 30" fill="none" xmlns="http://www.w3.org/2000/svg">
<path fill-rule="evenodd" clip-rule="evenodd" d="M29.333 0.33782C29.6041 0.121514 29.9717 0 30.355 0C30.7383 0 31.1059 0.121514 31.377 0.33782L37.1592 4.95307C37.2938 5.06024 37.4006 5.18757 37.4735 5.32775C37.5464 5.46792 37.5839 5.6182 37.5839 5.76996C37.5839 5.92173 37.5464 6.07201 37.4735 6.21218C37.4006 6.35236 37.2938 6.47968 37.1592 6.58686L25.7625 15.6835C25.5429 15.8595 25.289 16.006 25.0108 16.1173L13.6575 20.6472C13.3864 20.7552 13.0796 20.7925 12.7804 20.7538C12.4813 20.715 12.205 20.6022 11.9905 20.4313C11.7761 20.2604 11.6344 20.04 11.5854 19.8013C11.5364 19.5626 11.5827 19.3177 11.7176 19.1011L17.3928 10.0368C17.5323 9.81472 17.7159 9.61212 17.9363 9.43678L29.333 0.33782ZM30.3565 2.78621L19.9774 11.0706L16.9794 15.8612L17.7137 16.4473L23.7185 14.052L34.0947 5.76996L30.3565 2.78621ZM23.1287 2.30853L20.2376 4.61615H8.38417C7.14678 4.61615 6.30258 4.61615 5.65498 4.66C5.01894 4.70153 4.69513 4.77538 4.46963 4.86768C3.92566 5.08892 3.4834 5.44193 3.20622 5.87611C3.09058 6.05611 2.99806 6.31456 2.94602 6.82224C2.89109 7.33915 2.89109 8.01297 2.89109 9.00064V23.3079C2.89109 24.2956 2.89109 24.9694 2.94602 25.4863C2.99806 25.994 3.09058 26.2524 3.20622 26.4324C3.4834 26.8666 3.92566 27.2196 4.46963 27.4408C4.69513 27.5332 5.01894 27.607 5.65498 27.6485C6.30547 27.6924 7.14678 27.6924 8.38417 27.6924H26.3089C27.5463 27.6924 28.3905 27.6924 29.0381 27.6485C29.6742 27.607 29.998 27.5332 30.2235 27.4408C30.7675 27.2196 31.2097 26.8666 31.4869 26.4324C31.6025 26.2524 31.695 25.994 31.7471 25.4863C31.802 24.9671 31.802 24.2956 31.802 23.3079V13.8466L34.6931 11.539V23.354C34.6931 24.284 34.6931 25.0502 34.6295 25.6755C34.563 26.324 34.4213 26.9216 34.0628 27.4801C33.5085 28.3485 32.624 29.0545 31.536 29.4969C30.8335 29.7831 30.0876 29.8962 29.2752 29.9492C28.4946 30 27.5319 30 26.3697 30H8.32635C7.16124 30 6.20139 30 5.41791 29.9492C4.60551 29.8962 3.85672 29.7831 3.15707 29.4969C2.06913 29.0545 1.18461 28.3485 0.630258 27.4801C0.271762 26.9193 0.130099 26.324 0.0636042 25.6755C2.15403e-07 25.0525 0 24.284 0 23.354V8.95448C0 8.02451 2.15403e-07 7.25838 0.0636042 6.63302C0.130099 5.98457 0.271762 5.3869 0.630258 4.82845C1.18461 3.96008 2.06913 3.25406 3.15707 2.81159C3.85961 2.52545 4.60551 2.41237 5.41791 2.3593C6.1985 2.30853 7.16124 2.30853 8.32635 2.30853H23.1287Z" fill="black"/>
</svg>
