<svg width="50" height="50" viewBox="0 0 50 50" fill="none" xmlns="http://www.w3.org/2000/svg">
<path fill-rule="evenodd" clip-rule="evenodd" d="M39.0234 0.563034C39.384 0.202524 39.8731 0 40.383 0C40.893 0 41.382 0.202524 41.7426 0.563034L49.435 8.25511C49.6141 8.43374 49.7562 8.64595 49.8531 8.87958C49.9501 9.1132 50 9.36366 50 9.61661C50 9.86955 49.9501 10.12 49.8531 10.3536C49.7562 10.5873 49.6141 10.7995 49.435 10.9781L34.2734 26.1392C33.9811 26.4325 33.6434 26.6766 33.2733 26.8622L18.1694 34.412C17.8087 34.5921 17.4005 34.6542 17.0025 34.5896C16.6046 34.5251 16.237 34.3371 15.9517 34.0522C15.6664 33.7674 15.4779 33.4001 15.4127 33.0022C15.3476 32.6044 15.4091 32.1961 15.5886 31.8352L23.1386 16.7279C23.3243 16.3579 23.5685 16.0202 23.8617 15.728L39.0234 0.563034ZM40.3849 4.64368L26.5771 18.451L22.5886 26.4353L23.5656 27.4122L31.5541 23.42L45.3581 9.61661L40.3849 4.64368ZM30.7695 3.84755L26.9233 7.69359H11.1539C9.50777 7.69359 8.38468 7.69359 7.52314 7.76666C6.67698 7.83589 6.2462 7.95896 5.9462 8.11281C5.22253 8.48153 4.63416 9.06988 4.26542 9.79352C4.11157 10.0935 3.98849 10.5243 3.91926 11.3704C3.84619 12.2319 3.84619 13.355 3.84619 15.0011V38.8465C3.84619 40.4926 3.84619 41.6156 3.91926 42.4771C3.98849 43.3233 4.11157 43.754 4.26542 44.054C4.63416 44.7777 5.22253 45.366 5.9462 45.7347C6.2462 45.8886 6.67698 46.0117 7.52314 46.0809C8.38853 46.154 9.50777 46.154 11.1539 46.154H35.0003C36.6465 46.154 37.7695 46.154 38.6311 46.0809C39.4772 46.0117 39.908 45.8886 40.208 45.7347C40.9317 45.366 41.5201 44.7777 41.8888 44.054C42.0426 43.754 42.1657 43.3233 42.235 42.4771C42.308 41.6118 42.308 40.4926 42.308 38.8465V23.0777L46.1542 19.2317V38.9234C46.1542 40.4734 46.1542 41.7503 46.0696 42.7925C45.9811 43.8733 45.7927 44.8694 45.3158 45.8001C44.5783 47.2474 43.4015 48.4241 41.9542 49.1616C41.0196 49.6385 40.0273 49.8269 38.9465 49.9154C37.908 50 36.6272 50 35.0811 50H11.077C9.527 50 8.25007 50 7.20775 49.9154C6.12697 49.8269 5.13081 49.6385 4.20003 49.1616C2.75269 48.4241 1.57595 47.2474 0.838468 45.8001C0.361541 44.8655 0.173079 43.8733 0.0846164 42.7925C2.86563e-07 41.7541 0 40.4734 0 38.9234V14.9241C0 13.3742 2.86563e-07 12.0973 0.0846164 11.055C0.173079 9.97429 0.361541 8.97816 0.838468 8.04742C1.57595 6.60013 2.75269 5.42344 4.20003 4.68599C5.13466 4.20908 6.12697 4.02062 7.20775 3.93216C8.24622 3.84755 9.527 3.84755 11.077 3.84755H30.7695Z" fill="black"/>
</svg>
