<svg width="27" height="21" viewBox="0 0 27 21" fill="none" xmlns="http://www.w3.org/2000/svg">
<path fill-rule="evenodd" clip-rule="evenodd" d="M20.4284 0.236474C20.6171 0.0850599 20.8732 0 21.1401 0C21.4071 0 21.6631 0.0850599 21.8519 0.236474L25.8787 3.46715C25.9725 3.54217 26.0469 3.6313 26.0976 3.72942C26.1484 3.82755 26.1745 3.93274 26.1745 4.03897C26.1745 4.14521 26.1484 4.2504 26.0976 4.34853C26.0469 4.44665 25.9725 4.53578 25.8787 4.6108L17.9418 10.9785C17.7888 11.1016 17.612 11.2042 17.4183 11.2821L9.51149 14.453C9.32266 14.5287 9.10898 14.5548 8.90066 14.5276C8.69233 14.5005 8.4999 14.4216 8.35056 14.3019C8.20121 14.1823 8.10251 14.028 8.0684 13.8609C8.03429 13.6938 8.0665 13.5224 8.16047 13.3708L12.1128 7.02573C12.21 6.8703 12.3378 6.72848 12.4914 6.60574L20.4284 0.236474ZM21.1411 1.95035L13.9129 7.7494L11.8249 11.1028L12.3363 11.5131L16.5183 9.83642L23.7445 4.03897L21.1411 1.95035ZM16.1075 1.61597L14.0941 3.23131H5.83897C4.97722 3.23131 4.3893 3.23131 3.93829 3.262C3.49533 3.29107 3.26983 3.34276 3.11278 3.40738C2.73394 3.56224 2.42594 3.80935 2.2329 4.11328C2.15237 4.23928 2.08794 4.42019 2.05169 4.77557C2.01344 5.1374 2.01344 5.60908 2.01344 6.30045V16.3155C2.01344 17.0069 2.01344 17.4786 2.05169 17.8404C2.08794 18.1958 2.15237 18.3767 2.2329 18.5027C2.42594 18.8066 2.73394 19.0537 3.11278 19.2086C3.26983 19.2732 3.49533 19.3249 3.93829 19.354C4.39131 19.3847 4.97722 19.3847 5.83897 19.3847H18.3223C19.184 19.3847 19.772 19.3847 20.223 19.354C20.6659 19.3249 20.8914 19.2732 21.0485 19.2086C21.4273 19.0537 21.7353 18.8066 21.9284 18.5027C22.0089 18.3767 22.0733 18.1958 22.1096 17.8404C22.1478 17.477 22.1478 17.0069 22.1478 16.3155V9.69265L24.1613 8.07731V16.3478C24.1613 16.9988 24.1613 17.5351 24.117 17.9729C24.0707 18.4268 23.972 18.8451 23.7223 19.2361C23.3363 19.8439 22.7203 20.3381 21.9626 20.6479C21.4733 20.8482 20.9539 20.9273 20.3881 20.9645C19.8445 21 19.174 21 18.3646 21H5.79871C4.98729 21 4.31883 21 3.77319 20.9645C3.20741 20.9273 2.68593 20.8482 2.19868 20.6479C1.441 20.3381 0.824994 19.8439 0.43893 19.2361C0.189263 18.8435 0.0906049 18.4268 0.0442958 17.9729C1.50013e-07 17.5367 0 16.9988 0 16.3478V6.26814C0 5.61716 1.50013e-07 5.08087 0.0442958 4.64311C0.0906049 4.1892 0.189263 3.77083 0.43893 3.37992C0.824994 2.77205 1.441 2.27784 2.19868 1.96811C2.68794 1.76781 3.20741 1.68866 3.77319 1.65151C4.31681 1.61597 4.98729 1.61597 5.79871 1.61597H16.1075Z" fill="black"/>
</svg>
